<svg id="Capa_1" enable-background="new 0 0 512 512" height="512" viewBox="0 0 512 512" width="512" xmlns="http://www.w3.org/2000/svg"><g><path d="m374.179 197.373c0-12.486-10.158-22.644-22.644-22.644h-46.719v-4.048c0-24.368-17.947-44.62-41.316-48.239v-7.873c0-4.142-3.358-7.5-7.5-7.5s-7.5 3.358-7.5 7.5v7.873c-23.37 3.619-41.316 23.872-41.316 48.239v4.048h-46.718c-12.486 0-22.645 10.158-22.645 22.644s10.158 22.644 22.645 22.644h1.903v12.934c0 4.142 3.358 7.5 7.5 7.5s7.5-3.358 7.5-7.5v-12.934h157.264v111.227c-3.712-1.115-6.466-3.12-9.621-5.417-5.676-4.133-12.741-9.276-25.949-9.276-13.207 0-20.271 5.144-25.947 9.276-2.278 1.659-4.276 3.109-6.528 4.21-.098.041-.192.089-.288.134-2.726 1.283-5.848 2.057-10.301 2.057-4.374 0-7.465-.746-10.157-1.989-.147-.073-.295-.146-.447-.209-2.246-1.1-4.241-2.549-6.514-4.204-5.676-4.132-12.74-9.276-25.947-9.276s-20.271 5.144-25.947 9.276c-3.154 2.297-5.907 4.301-9.617 5.417v-65.607c0-4.142-3.358-7.5-7.5-7.5s-7.5 3.358-7.5 7.5v66.503c0 4.449 2.015 8.565 5.529 11.295 3.527 2.739 8.032 3.675 12.366 2.571 6.922-1.768 11.507-5.106 15.552-8.051 5.105-3.717 8.793-6.402 17.117-6.402 8.325 0 12.013 2.686 17.118 6.402 1.527 1.112 3.161 2.295 4.981 3.433v23.259h-19.523c-9.773 0-17.723 7.951-17.723 17.724v11.655c0 6.015 4.893 10.908 10.908 10.908h94.61c6.015 0 10.908-4.893 10.908-10.908v-11.655c0-9.773-7.951-17.724-17.723-17.724h-19.52v-23.262c1.818-1.137 3.45-2.319 4.975-3.429 5.105-3.717 8.793-6.402 17.118-6.402 8.327 0 12.016 2.686 17.121 6.402 4.045 2.945 8.631 6.284 15.556 8.051 4.33 1.105 8.838.168 12.365-2.571 3.513-2.73 5.528-6.846 5.528-11.295v-112.123h1.903c12.485 0 22.643-10.158 22.643-22.644zm-74.966 184.996v7.563h-86.426v-7.563c0-1.502 1.222-2.724 2.723-2.724h80.979c1.502.001 2.724 1.222 2.724 2.724zm-37.244-17.723h-11.938v-17.81c1.845.246 3.817.394 5.967.394 2.152 0 4.125-.148 5.972-.395v17.811zm-39.785-193.966c0-18.646 15.17-33.816 33.816-33.816s33.816 15.17 33.816 33.816v4.048h-67.633v-4.048zm-69.363 26.693c0-4.215 3.429-7.644 7.645-7.644h191.07c4.215 0 7.644 3.429 7.644 7.644s-3.429 7.644-7.644 7.644h-191.07c-4.216 0-7.645-3.429-7.645-7.644z"/><path d="m220.799 291.685v-42.391c0-4.142-3.358-7.5-7.5-7.5s-7.5 3.358-7.5 7.5v42.391c0 4.142 3.358 7.5 7.5 7.5s7.5-3.358 7.5-7.5z"/><path d="m306.201 291.685v-42.391c0-4.142-3.358-7.5-7.5-7.5s-7.5 3.358-7.5 7.5v42.391c0 4.142 3.358 7.5 7.5 7.5s7.5-3.358 7.5-7.5z"/><path d="m263.5 291.685v-42.391c0-4.142-3.358-7.5-7.5-7.5s-7.5 3.358-7.5 7.5v42.391c0 4.142 3.358 7.5 7.5 7.5s7.5-3.358 7.5-7.5z"/><path d="m489.293 125.786c-12.521 0-22.707 10.187-22.707 22.707v47.681c0 4.142 3.358 7.5 7.5 7.5s7.5-3.358 7.5-7.5v-47.681c0-4.25 3.457-7.707 7.707-7.707s7.707 3.458 7.707 7.707v241.439h-15.414v-161.072c0-4.142-3.358-7.5-7.5-7.5s-7.5 3.358-7.5 7.5v23.655h-89.601c-11.732 0-21.277 9.545-21.277 21.277 0 10.211 7.234 18.759 16.844 20.805v97.835c0 6.893 5.608 12.5 12.5 12.5h20.414c6.893 0 12.5-5.607 12.5-12.5v-49.564h48.621v49.564c0 6.893 5.607 12.5 12.5 12.5h20.413c6.893 0 12.5-5.607 12.5-12.5v-243.939c0-12.52-10.186-22.707-22.707-22.707zm-118.585 148.006c0-3.461 2.816-6.277 6.277-6.277h89.601v12.554h-89.601c-3.461 0-6.277-2.816-6.277-6.277zm32.258 116.14h-15.414v-94.863h15.414zm15-62.064v-32.799h48.621v32.799z"/><path d="m135.015 252.515h-34.855c-4.142 0-7.5 3.358-7.5 7.5s3.358 7.5 7.5 7.5h34.854c3.461 0 6.277 2.816 6.277 6.277s-2.816 6.277-6.277 6.277h-89.6v-12.554h22.06c4.142 0 7.5-3.358 7.5-7.5s-3.358-7.5-7.5-7.5h-22.06v-104.022c0-12.521-10.186-22.707-22.707-22.707s-22.707 10.187-22.707 22.707v243.939c0 6.893 5.607 12.5 12.5 12.5h20.414c6.893 0 12.5-5.607 12.5-12.5v-49.564h48.621v49.564c0 6.893 5.607 12.5 12.5 12.5h20.414c6.893 0 12.5-5.607 12.5-12.5v-97.835c9.61-2.046 16.844-10.594 16.844-20.805-.001-11.732-9.546-21.277-21.278-21.277zm-104.601 137.417h-15.414v-241.439c0-4.25 3.458-7.707 7.707-7.707s7.707 3.458 7.707 7.707zm15-62.064v-32.799h48.621v32.799zm63.62 62.064v-94.863h15.414v94.863z"/></g></svg>